<svg width="32" height="32" viewBox="0 0 32 32" fill="none" xmlns="http://www.w3.org/2000/svg">
<rect x="0.863251" y="0.884155" width="31" height="31" rx="4" fill="url(#paint0_linear_37_37)"/>
<g clip-path="url(#clip0_37_37)">
<path d="M22.1966 8.88416H10.5299C9.61325 8.88416 8.86325 9.63416 8.86325 10.5508V22.2175C8.86325 23.1342 9.61325 23.8842 10.5299 23.8842H22.1966C23.1133 23.8842 23.8633 23.1342 23.8633 22.2175V10.5508C23.8633 9.63416 23.1133 8.88416 22.1966 8.88416ZM17.2216 12.2675L18.1049 11.3842L19.2799 12.5592L20.4549 11.3842L21.3382 12.2675L20.1633 13.4425L21.3382 14.6175L20.4549 15.5008L19.2799 14.3342L18.1049 15.5092L17.2216 14.6258L18.3966 13.4508L17.2216 12.2675ZM11.5716 12.8175H15.7383V14.0675H11.5716V12.8175ZM15.9466 19.7175H14.2799V21.3842H13.0299V19.7175H11.3633V18.4675H13.0299V16.8008H14.2799V18.4675H15.9466V19.7175ZM21.3633 20.7592H17.1966V19.5092H21.3633V20.7592ZM21.3633 18.6758H17.1966V17.4258H21.3633V18.6758Z" fill="white"/>
</g>
<defs>
<linearGradient id="paint0_linear_37_37" x1="0.863251" y1="16.3842" x2="31.8633" y2="16.3842" gradientUnits="userSpaceOnUse">
<stop stop-color="#2563EB"/>
<stop offset="1" stop-color="#9333EA"/>
</linearGradient>
<clipPath id="clip0_37_37">
<rect width="15" height="15" fill="white" transform="translate(8.86325 8.88416)"/>
</clipPath>
</defs>
</svg>
