<svg width="139" height="30" viewBox="0 0 139 30" fill="none" xmlns="http://www.w3.org/2000/svg">
<rect x="11.25" y="9.625" width="5" height="5" rx="1" fill="#0055D6"/>
<path d="M14 10.75C14 10.6117 13.8883 10.5 13.75 10.5C13.6117 10.5 13.5 10.6117 13.5 10.75V11.875H12.375C12.2367 11.875 12.125 11.9867 12.125 12.125C12.125 12.2633 12.2367 12.375 12.375 12.375H13.5V13.5C13.5 13.6383 13.6117 13.75 13.75 13.75C13.8883 13.75 14 13.6383 14 13.5V12.375H15.125C15.2633 12.375 15.375 12.2633 15.375 12.125C15.375 11.9867 15.2633 11.875 15.125 11.875H14V10.75Z" fill="white"/>
<rect x="17.25" y="9.625" width="5" height="5" rx="1" fill="#0055D6"/>
<path d="M21.375 12.125C21.375 12.2633 21.2633 12.375 21.125 12.375H18.375C18.2367 12.375 18.125 12.2633 18.125 12.125C18.125 11.9867 18.2367 11.875 18.375 11.875H21.125C21.2633 11.875 21.375 11.9867 21.375 12.125Z" fill="white"/>
<rect x="11.25" y="15.625" width="5" height="5" rx="1" fill="#0055D6"/>
<path d="M12.9545 16.976C12.8567 16.8782 12.6987 16.8782 12.601 16.976C12.5032 17.0737 12.5032 17.2317 12.601 17.3295L13.3964 18.125L12.601 18.9205C12.5032 19.0183 12.5032 19.1763 12.601 19.274C12.6987 19.3718 12.8567 19.3718 12.9545 19.274L13.75 18.4786L14.5455 19.274C14.6433 19.3718 14.8013 19.3718 14.899 19.274C14.9968 19.1763 14.9968 19.0183 14.899 18.9205L14.1036 18.125L14.899 17.3295C14.9968 17.2317 14.9968 17.0737 14.899 16.976C14.8013 16.8782 14.6433 16.8782 14.5455 16.976L13.75 17.7714L12.9545 16.976Z" fill="white"/>
<rect x="17.25" y="15.625" width="5" height="5" rx="1" fill="#0055D6"/>
<path d="M21.2232 18.3334C21.3383 18.3334 21.4317 18.24 21.4317 18.1249C21.4317 18.0098 21.3383 17.9163 21.2232 17.9163H18.2768C18.1617 17.9163 18.0683 18.0098 18.0683 18.1249C18.0683 18.24 18.1617 18.3334 18.2768 18.3334L21.2232 18.3334ZM20.0446 17.2414C20.1228 17.1633 20.1667 17.0573 20.1667 16.9468C20.1667 16.8363 20.1228 16.7303 20.0446 16.6521C19.9665 16.574 19.8605 16.5301 19.75 16.5301C19.6395 16.5301 19.5335 16.574 19.4554 16.6521C19.3772 16.7303 19.3333 16.8363 19.3333 16.9468C19.3333 17.0573 19.3772 17.1633 19.4554 17.2414C19.5335 17.3196 19.6395 17.3635 19.75 17.3635C19.8605 17.3635 19.9665 17.3196 20.0446 17.2414ZM20.0446 19.5985C20.1228 19.5204 20.1667 19.4144 20.1667 19.3039C20.1667 19.1934 20.1228 19.0874 20.0446 19.0093C19.9665 18.9311 19.8605 18.8872 19.75 18.8872C19.6395 18.8872 19.5335 18.9311 19.4554 19.0093C19.3772 19.0874 19.3333 19.1934 19.3333 19.3039C19.3333 19.4144 19.3772 19.5204 19.4554 19.5985C19.5335 19.6767 19.6395 19.7206 19.75 19.7206C19.8605 19.7206 19.9665 19.6767 20.0446 19.5985Z" fill="white"/>
<path d="M23.4132 23.725H32.4132V28H17.6757L23.4132 23.725ZM3.20068 14.3875C3.20068 12.4875 3.56318 10.7 4.28818 9.025C5.01318 7.35 6.01318 5.8625 7.28818 4.5625C8.56318 3.2625 10.0382 2.25 11.7132 1.525C13.4132 0.774998 15.2257 0.399998 17.1507 0.399998C19.0507 0.399998 20.8382 0.774998 22.5132 1.525C24.2132 2.25 25.7007 3.2625 26.9757 4.5625C28.2757 5.8625 29.2882 7.35 30.0132 9.025C30.7632 10.7 31.1382 12.4875 31.1382 14.3875C31.1382 16.3125 30.7632 18.1125 30.0132 19.7875C29.2882 21.4625 28.2757 22.95 26.9757 24.25C25.7007 25.525 24.2132 26.525 22.5132 27.25C20.8382 27.95 19.0507 28.3 17.1507 28.3C15.2007 28.3 13.3882 27.95 11.7132 27.25C10.0382 26.525 8.56318 25.5375 7.28818 24.2875C6.01318 23.0125 5.01318 21.5375 4.28818 19.8625C3.56318 18.1625 3.20068 16.3375 3.20068 14.3875ZM7.70068 14.3875C7.70068 15.7125 7.93818 16.9625 8.41318 18.1375C8.91318 19.3125 9.60068 20.35 10.4757 21.25C11.3507 22.125 12.3632 22.8125 13.5132 23.3125C14.6632 23.8125 15.9132 24.0625 17.2632 24.0625C18.5632 24.0625 19.7757 23.8125 20.9007 23.3125C22.0507 22.8125 23.0507 22.125 23.9007 21.25C24.7507 20.375 25.4132 19.35 25.8882 18.175C26.3882 17 26.6382 15.7375 26.6382 14.3875C26.6382 13.0625 26.3882 11.8125 25.8882 10.6375C25.3882 9.4625 24.7132 8.4375 23.8632 7.5625C23.0132 6.6625 22.0132 5.9625 20.8632 5.4625C19.7132 4.9625 18.4757 4.7125 17.1507 4.7125C15.8257 4.7125 14.5882 4.9625 13.4382 5.4625C12.2882 5.9625 11.2757 6.6625 10.4007 7.5625C9.55068 8.4625 8.88818 9.5 8.41318 10.675C7.93818 11.85 7.70068 13.0875 7.70068 14.3875Z" fill="#2B7FFF"/>
<path d="M42.7812 23.2813C41.7604 23.2813 40.8021 23.0938 39.9063 22.7187C39.0104 22.3333 38.2188 21.8073 37.5313 21.1406C36.8542 20.474 36.3229 19.6979 35.9375 18.8125C35.5625 17.9271 35.375 16.9792 35.375 15.9688C35.375 14.9583 35.5625 14.0104 35.9375 13.125C36.3229 12.2396 36.8542 11.4635 37.5313 10.7969C38.2188 10.1302 39.0104 9.60937 39.9063 9.23437C40.8021 8.84896 41.7604 8.65625 42.7812 8.65625C43.7292 8.65625 44.6198 8.81771 45.4531 9.14063C46.2865 9.45312 47.0313 9.90104 47.6875 10.4844L46.9531 13.4687C46.5469 12.7917 45.9896 12.2292 45.2813 11.7812C44.5729 11.3333 43.7604 11.1094 42.8438 11.1094C41.9583 11.1094 41.1563 11.3281 40.4375 11.7656C39.7188 12.2031 39.1458 12.7865 38.7188 13.5156C38.3021 14.2448 38.0938 15.0625 38.0938 15.9688C38.0938 16.8646 38.3021 17.6823 38.7188 18.4219C39.1458 19.151 39.7188 19.7344 40.4375 20.1719C41.1563 20.6094 41.9583 20.8281 42.8438 20.8281C43.75 20.8281 44.5573 20.6042 45.2656 20.1562C45.9844 19.6979 46.5469 19.1354 46.9531 18.4687L47.6875 21.4531C47.0313 22.026 46.2865 22.474 45.4531 22.7969C44.6198 23.1198 43.7292 23.2813 42.7812 23.2813ZM53.5234 23.2188C52.6693 23.2188 51.888 23 51.1797 22.5625C50.4714 22.1146 49.9036 21.5208 49.4766 20.7812C49.0599 20.0312 48.8516 19.2083 48.8516 18.3125C48.8516 17.4167 49.0599 16.599 49.4766 15.8594C49.9036 15.1094 50.4714 14.5156 51.1797 14.0781C51.888 13.6302 52.6693 13.4062 53.5234 13.4062C54.138 13.4062 54.7057 13.5156 55.2266 13.7344C55.7474 13.9531 56.1901 14.2604 56.5547 14.6562V13.625H58.6953V23H56.5547V21.9687C56.1901 22.3542 55.7474 22.6615 55.2266 22.8906C54.7057 23.1094 54.138 23.2188 53.5234 23.2188ZM53.8203 21.0469C54.3203 21.0469 54.7682 20.9219 55.1641 20.6719C55.5703 20.4219 55.8932 20.0937 56.1328 19.6875C56.3724 19.2708 56.4922 18.8125 56.4922 18.3125C56.4922 17.8125 56.3724 17.3594 56.1328 16.9531C55.8932 16.5365 55.5703 16.2031 55.1641 15.9531C54.7682 15.7031 54.3255 15.5781 53.8359 15.5781C53.3359 15.5781 52.8828 15.7031 52.4766 15.9531C52.0807 16.2031 51.763 16.5365 51.5234 16.9531C51.2839 17.3594 51.1641 17.8125 51.1641 18.3125C51.1641 18.8125 51.2839 19.2708 51.5234 19.6875C51.763 20.0937 52.0807 20.4219 52.4766 20.6719C52.8828 20.9219 53.3307 21.0469 53.8203 21.0469ZM61.0283 23V8H63.4814V23H61.0283ZM72.6777 27.6875V22.2812C72.3132 22.5729 71.9017 22.8021 71.4434 22.9687C70.9954 23.1354 70.5059 23.2188 69.9746 23.2188C69.11 23.2188 68.3236 23 67.6152 22.5625C66.9069 22.1146 66.3392 21.5208 65.9121 20.7812C65.4954 20.0312 65.2871 19.2083 65.2871 18.3125C65.2871 17.4167 65.4954 16.599 65.9121 15.8594C66.3392 15.1094 66.9069 14.5156 67.6152 14.0781C68.3236 13.6302 69.11 13.4062 69.9746 13.4062C70.5788 13.4062 71.1413 13.5156 71.6621 13.7344C72.1829 13.9531 72.6257 14.25 72.9902 14.625V13.625H75.1309V27.6875H72.6777ZM70.2559 21.0469C70.7559 21.0469 71.2038 20.9219 71.5996 20.6719C72.0059 20.4219 72.3288 20.0937 72.5684 19.6875C72.8079 19.2708 72.9277 18.8125 72.9277 18.3125C72.9277 17.8125 72.8079 17.3594 72.5684 16.9531C72.3288 16.5365 72.0059 16.2031 71.5996 15.9531C71.2038 15.7031 70.7611 15.5781 70.2715 15.5781C69.7715 15.5781 69.3184 15.7031 68.9121 15.9531C68.5163 16.2031 68.1986 16.5365 67.959 16.9531C67.7194 17.3594 67.5996 17.8125 67.5996 18.3125C67.5996 18.8125 67.7194 19.2708 67.959 19.6875C68.1986 20.0937 68.5163 20.4219 68.9121 20.6719C69.3184 20.9219 69.7663 21.0469 70.2559 21.0469ZM81.0576 23.2813C80.4014 23.2813 79.7816 23.1198 79.1982 22.7969C78.6149 22.474 78.1462 22.0104 77.792 21.4063C77.4378 20.7917 77.2607 20.0469 77.2607 19.1719V13.625H79.7139V18.8437C79.7139 19.4271 79.8857 19.9427 80.2295 20.3906C80.5837 20.8385 81.0732 21.0625 81.6982 21.0625C82.2191 21.0625 82.6826 20.875 83.0889 20.5C83.4951 20.125 83.6982 19.5885 83.6982 18.8906V13.625H86.1514V23H83.917V21.875C83.5837 22.3333 83.167 22.6823 82.667 22.9219C82.167 23.1615 81.6305 23.2813 81.0576 23.2813ZM88.4722 23V8H90.9253V23H88.4722ZM97.4028 23.2188C96.5487 23.2188 95.7674 23 95.0591 22.5625C94.3507 22.1146 93.783 21.5208 93.356 20.7812C92.9393 20.0312 92.731 19.2083 92.731 18.3125C92.731 17.4167 92.9393 16.599 93.356 15.8594C93.783 15.1094 94.3507 14.5156 95.0591 14.0781C95.7674 13.6302 96.5487 13.4062 97.4028 13.4062C98.0174 13.4062 98.5851 13.5156 99.106 13.7344C99.6268 13.9531 100.069 14.2604 100.434 14.6562V13.625H102.575V23H100.434V21.9687C100.069 22.3542 99.6268 22.6615 99.106 22.8906C98.5851 23.1094 98.0174 23.2188 97.4028 23.2188ZM97.6997 21.0469C98.1997 21.0469 98.6476 20.9219 99.0435 20.6719C99.4497 20.4219 99.7726 20.0937 100.012 19.6875C100.252 19.2708 100.372 18.8125 100.372 18.3125C100.372 17.8125 100.252 17.3594 100.012 16.9531C99.7726 16.5365 99.4497 16.2031 99.0435 15.9531C98.6476 15.7031 98.2049 15.5781 97.7153 15.5781C97.2153 15.5781 96.7622 15.7031 96.356 15.9531C95.9601 16.2031 95.6424 16.5365 95.4028 16.9531C95.1632 17.3594 95.0435 17.8125 95.0435 18.3125C95.0435 18.8125 95.1632 19.2708 95.4028 19.6875C95.6424 20.0937 95.9601 20.4219 96.356 20.6719C96.7622 20.9219 97.2101 21.0469 97.6997 21.0469ZM105.986 23V15.5937H104.142V13.625H106.033V10.5H108.392V13.625H110.361V15.5937H108.439V23H105.986ZM111.939 23V13.625H114.392V23H111.939ZM113.173 12.1875C112.788 12.1875 112.46 12.0573 112.189 11.7969C111.929 11.526 111.798 11.1979 111.798 10.8125C111.798 10.4167 111.929 10.0885 112.189 9.82812C112.46 9.56771 112.788 9.4375 113.173 9.4375C113.569 9.4375 113.897 9.56771 114.158 9.82812C114.418 10.0885 114.548 10.4167 114.548 10.8125C114.548 11.1979 114.418 11.526 114.158 11.7969C113.897 12.0573 113.569 12.1875 113.173 12.1875ZM121.229 23.2813C120.302 23.2813 119.453 23.0573 118.682 22.6094C117.922 22.1615 117.318 21.5625 116.87 20.8125C116.422 20.0625 116.198 19.2292 116.198 18.3125C116.198 17.3958 116.422 16.5625 116.87 15.8125C117.318 15.0625 117.922 14.4635 118.682 14.0156C119.453 13.5677 120.297 13.3437 121.213 13.3437C122.151 13.3437 123 13.5677 123.76 14.0156C124.521 14.4635 125.125 15.0625 125.573 15.8125C126.031 16.5521 126.26 17.3854 126.26 18.3125C126.26 19.2187 126.031 20.0521 125.573 20.8125C125.125 21.5625 124.521 22.1615 123.76 22.6094C123 23.0573 122.156 23.2813 121.229 23.2813ZM121.213 21.0625C121.724 21.0625 122.182 20.9375 122.588 20.6875C122.995 20.4375 123.318 20.1042 123.557 19.6875C123.797 19.2708 123.917 18.8125 123.917 18.3125C123.917 17.8021 123.797 17.3437 123.557 16.9375C123.318 16.5208 122.995 16.1875 122.588 15.9375C122.182 15.6875 121.724 15.5625 121.213 15.5625C120.713 15.5625 120.26 15.6875 119.854 15.9375C119.448 16.1875 119.125 16.5208 118.885 16.9375C118.646 17.3437 118.526 17.8021 118.526 18.3125C118.526 18.8125 118.646 19.2708 118.885 19.6875C119.125 20.1042 119.448 20.4375 119.854 20.6875C120.26 20.9375 120.713 21.0625 121.213 21.0625ZM128.051 23V13.625H130.254V14.7812C130.598 14.3125 131.02 13.9583 131.52 13.7187C132.02 13.4687 132.562 13.3437 133.145 13.3437C133.812 13.3437 134.431 13.5052 135.004 13.8281C135.588 14.151 136.056 14.6198 136.411 15.2344C136.765 15.8385 136.942 16.5781 136.942 17.4531V23H134.489V17.7812C134.489 17.1979 134.317 16.6823 133.973 16.2344C133.629 15.7865 133.14 15.5625 132.504 15.5625C131.984 15.5625 131.52 15.7448 131.114 16.1094C130.708 16.4635 130.504 17.0052 130.504 17.7344V23H128.051Z" fill="#0047B2"/>
</svg>
