<svg width="300" height="300" viewBox="0 0 300 300" fill="none" xmlns="http://www.w3.org/2000/svg">
<path d="M165.222 158.352V252.381C163.401 252.484 161.568 252.538 159.722 252.538C106.978 252.538 64.2217 209.781 64.2217 157.038C64.2217 145.783 66.1696 134.983 69.7451 124.956L165.222 158.352Z" fill="#E7C1FF"/>
<path d="M173.222 48.8298C216.501 51.9987 252.695 80.6732 266.841 119.885L173.222 155.144V48.8298Z" fill="#E7C1FF"/>
<path d="M250.326 134.029C252.214 141.047 253.222 148.425 253.222 156.038C253.222 182.578 240.986 206.258 221.849 221.749L176.981 161.126L250.326 134.029Z" fill="#E7C1FF"/>
<path d="M245.428 266.166C224.353 280.429 199.547 289.616 172.749 291.949L172.95 167.807L245.428 266.166Z" fill="#E7C1FF"/>
<path opacity="0.76" d="M165.048 151.23L153.977 147.431L165.301 135.671L165.048 151.23ZM165.491 123.939L145.629 144.565L134.602 140.78L165.743 108.443L165.491 123.939ZM165.934 96.7118L126.255 137.916L115.562 134.246L166.178 81.6835L165.934 96.7118ZM166.369 69.952L107.214 131.381L97.8564 128.169L166.583 56.8016L166.369 69.952ZM166.774 45.0702L89.5098 125.305L79.3174 121.807L167.008 30.746L166.774 45.0702ZM167.198 19.0145L70.9697 118.941L60.2773 115.271L163.247 8.34558C164.619 8.22939 165.996 8.13042 167.378 8.05066L167.198 19.0145ZM51.9287 112.407L41.8477 108.947L133.378 13.9003C138.993 12.2638 144.739 10.9394 150.597 9.94812L51.9287 112.407ZM33.5 106.083L33.1592 105.966C48.1462 67.1808 78.4095 36.089 116.462 19.9335L33.5 106.083Z" fill="#E7C1FF"/>
</svg>
